<?xml version="1.0" encoding="UTF-8" standalone="no"?>
<!-- Created with Inkscape (http://www.inkscape.org/) -->

<svg
   width="29.999981mm"
   height="48.482262mm"
   viewBox="0 0 29.999981 48.482262"
   version="1.1"
   id="svg6842"
   inkscape:version="1.2.2 (b0a8486541, 2022-12-01)"
   sodipodi:docname="mani-logo-horse.svg"
   xmlns:inkscape="http://www.inkscape.org/namespaces/inkscape"
   xmlns:sodipodi="http://sodipodi.sourceforge.net/DTD/sodipodi-0.dtd"
   xmlns="http://www.w3.org/2000/svg"
   xmlns:svg="http://www.w3.org/2000/svg">
  <sodipodi:namedview
     id="namedview6844"
     pagecolor="#ffffff"
     bordercolor="#666666"
     borderopacity="1.0"
     inkscape:showpageshadow="2"
     inkscape:pageopacity="0.0"
     inkscape:pagecheckerboard="0"
     inkscape:deskcolor="#d1d1d1"
     inkscape:document-units="mm"
     showgrid="false"
     inkscape:zoom="1"
     inkscape:cx="344"
     inkscape:cy="89.5"
     inkscape:window-width="2560"
     inkscape:window-height="995"
     inkscape:window-x="0"
     inkscape:window-y="0"
     inkscape:window-maximized="1"
     inkscape:current-layer="layer1" />
  <defs
     id="defs6839" />
  <g
     inkscape:label="Layer 1"
     inkscape:groupmode="layer"
     id="layer1"
     transform="translate(-13.984421,-42.925655)">
    <g
       id="g5632"
       transform="matrix(0.00620231,0,0,-0.00620231,10.263035,95.263215)"
       inkscape:export-filename="dev/manikeys/dist/mani-logo.svg"
       inkscape:export-xdpi="500"
       inkscape:export-ydpi="500"
       style="fill:#000000">
      <path
         d="m 1779,8413 c -69,-34 -218,-182 -283,-282 -113,-172 -181,-403 -206,-691 -10,-113 -10,-157 3,-267 21,-179 48,-270 122,-420 61,-125 62,-127 49,-168 -7,-24 -18,-78 -25,-121 -23,-150 -117,-288 -281,-415 -117,-90 -198,-174 -235,-246 -18,-33 -33,-63 -33,-66 0,-3 37,31 83,76 74,74 223,177 256,177 23,0 -140,-209 -245,-314 -97,-96 -117,-122 -152,-196 -42,-88 -76,-190 -64,-190 4,0 22,26 40,58 39,68 102,155 107,150 3,-2 -13,-45 -35,-95 -66,-153 -120,-377 -120,-497 v -51 l 43,75 c 45,79 119,184 138,196 8,4 9,-2 5,-22 -4,-16 -12,-70 -20,-119 C 910,4879 897,4850 797,4711 659,4519 611,4392 604,4200 l -4,-115 33,126 c 20,77 50,160 77,214 51,101 77,124 54,48 -46,-148 -63,-373 -44,-569 6,-71 15,-135 19,-142 4,-7 22,33 43,96 38,115 126,302 141,302 5,0 6,-7 3,-16 -4,-9 -18,-74 -32,-143 -14,-69 -43,-178 -64,-241 -72,-215 -87,-360 -54,-518 14,-70 61,-189 70,-179 2,2 -3,42 -12,90 -11,67 -12,104 -5,165 10,76 27,139 36,130 3,-2 10,-40 15,-84 6,-43 20,-107 30,-142 15,-48 21,-107 25,-245 20,-623 170,-1121 464,-1542 81,-115 259,-318 315,-358 35,-25 33,-20 -51,96 -365,505 -539,940 -605,1512 -19,164 -16,662 5,855 29,268 48,424 54,450 9,41 101,-234 120,-360 15,-97 17,-102 26,-70 14,53 0,283 -23,380 -50,212 -62,401 -35,583 20,134 47,269 52,263 3,-2 16,-55 30,-118 18,-77 28,-159 32,-258 l 6,-145 14,55 c 22,89 24,242 7,404 -9,82 -16,187 -16,235 0,159 42,364 127,621 2,9 18,-15 38,-58 35,-74 68,-125 77,-116 10,10 -5,112 -28,187 -40,130 -33,164 71,354 60,109 119,252 109,262 -8,9 -58,-45 -112,-123 -64,-90 -63,-91 -83,45 -17,120 3,379 31,379 9,0 58,-74 88,-134 17,-35 20,-37 26,-19 9,29 -9,144 -29,184 -10,19 -44,80 -77,137 -127,218 -187,427 -188,652 0,83 30,302 55,401 42,168 123,332 219,443 56,65 160,156 179,156 8,0 13,-26 14,-83 4,-167 35,-282 125,-460 110,-220 126,-295 138,-632 8,-258 20,-336 58,-379 12,-13 18,-42 20,-100 4,-81 3,-83 -42,-169 -71,-137 -80,-180 -59,-277 5,-23 6,-24 13,-5 5,11 9,31 9,45 2,42 45,122 104,191 61,71 107,158 107,202 0,35 14,35 29,-1 30,-71 30,-181 2,-256 -19,-49 -4,-41 28,16 49,86 60,170 34,277 -6,24 -6,24 38,-7 90,-62 170,-169 205,-274 20,-60 30,-50 39,37 4,38 1,85 -8,130 -8,39 -14,71 -13,72 7,8 34,-30 106,-147 131,-212 266,-334 441,-395 23,-9 44,-13 46,-11 2,2 -31,28 -75,59 -73,51 -192,162 -192,179 0,4 26,-9 58,-29 102,-66 301,-139 355,-131 18,3 13,9 -30,41 -70,51 -150,144 -212,246 -28,46 -51,88 -51,93 0,11 18,10 25,-2 4,-6 59,-50 123,-99 130,-98 177,-145 242,-241 52,-79 49,-74 55,-68 9,9 -26,112 -56,166 -16,28 -25,52 -20,52 5,0 34,-20 64,-45 76,-61 179,-193 230,-292 23,-46 45,-83 49,-83 9,0 -1,76 -22,155 -24,90 -68,188 -125,276 -25,38 -45,72 -45,76 0,3 19,-10 43,-29 62,-51 153,-100 179,-96 21,3 18,6 -23,35 -50,35 -114,102 -105,111 22,21 213,-163 270,-259 l 19,-32 -29,7 c -16,4 -37,9 -46,12 -12,4 -16,1 -13,-8 9,-23 93,-71 235,-137 171,-79 259,-131 299,-177 35,-39 78,-120 69,-129 -2,-3 -24,2 -48,10 -23,8 -70,15 -104,14 -67,0 -65,-3 44,-41 77,-26 170,-109 170,-152 v -24 l -55,19 c -38,13 -81,19 -145,19 -56,0 -90,4 -90,10 0,6 7,25 16,41 16,32 14,46 -5,34 -6,-3 -23,-27 -38,-53 -24,-41 -28,-59 -31,-149 -4,-90 -1,-114 22,-186 35,-115 99,-197 161,-208 16,-3 21,-15 26,-54 4,-28 23,-107 42,-176 38,-139 74,-325 64,-335 -13,-13 -155,178 -246,329 -106,177 -233,475 -266,625 -3,17 -11,32 -17,32 -11,0 -5,-101 13,-218 25,-161 131,-405 264,-607 114,-173 217,-295 379,-452 106,-103 141,-143 127,-143 -12,0 -21,-4 -21,-9 0,-13 27,-22 95,-31 184,-24 252,-79 358,-295 70,-141 82,-186 82,-300 0,-91 -3,-106 -31,-165 -17,-36 -46,-83 -64,-104 -34,-38 -34,-38 -94,-33 -34,3 -72,8 -86,12 -23,6 -23,4 8,-23 20,-17 61,-38 96,-48 l 63,-18 34,-85 c 47,-118 46,-193 -3,-283 -52,-95 -129,-138 -136,-75 -3,22 1,27 17,27 49,0 4,44 -93,89 -106,50 -186,65 -341,65 -157,0 -201,-9 -416,-79 -235,-77 -316,-96 -434,-102 -84,-4 -125,-2 -175,11 -80,20 -189,71 -267,124 -88,60 -195,111 -245,118 -87,12 -150,-46 -164,-150 -8,-56 6,-60 35,-11 11,19 28,35 37,35 60,0 198,-187 265,-359 64,-164 86,-249 124,-473 38,-227 68,-323 135,-426 46,-72 125,-155 195,-204 162,-115 295,-131 560,-68 66,16 163,34 215,40 174,21 225,31 265,55 42,24 82,79 66,89 -5,4 -12,2 -16,-4 -3,-5 -12,-10 -20,-10 -10,0 -7,12 10,47 12,27 26,66 30,88 l 7,40 25,-30 c 14,-16 39,-59 56,-94 35,-73 47,-178 28,-247 -15,-54 -81,-129 -145,-161 -49,-26 -59,-27 -276,-34 -205,-7 -236,-10 -345,-38 -278,-71 -442,-16 -645,217 -35,41 -66,69 -68,64 -2,-6 16,-49 39,-94 54,-105 166,-222 251,-261 129,-61 247,-70 403,-33 94,23 235,46 273,46 29,-1 -24,-39 -114,-82 -230,-111 -530,-78 -746,82 -37,27 -87,75 -112,107 -112,142 -137,228 -216,723 -27,166 -60,308 -98,420 -54,156 -161,379 -169,353 -2,-6 25,-120 60,-254 76,-288 91,-349 85,-355 -3,-2 -58,54 -124,126 -65,72 -163,179 -218,238 -147,160 -212,245 -235,308 -23,59 -35,115 -101,459 -44,228 -99,445 -113,445 -20,0 33,-614 70,-808 8,-46 13,-85 10,-88 -9,-9 -239,65 -314,101 -171,80 -285,195 -395,396 -72,129 -146,365 -177,559 -39,243 -45,360 -43,780 1,231 -2,399 -7,390 -11,-19 -37,-156 -57,-295 -21,-151 -29,-607 -15,-820 23,-343 63,-615 126,-866 86,-341 210,-618 428,-956 272,-423 358,-584 504,-948 76,-190 135,-244 303,-280 102,-22 362,-31 473,-16 110,15 253,51 341,86 l 68,27 67,-25 c 118,-46 150,-51 306,-51 114,-1 166,4 215,17 99,28 216,88 313,162 83,64 90,68 160,75 132,15 220,62 276,147 98,148 74,388 -53,531 -57,64 -59,72 -35,158 11,42 21,106 21,143 l 1,66 61,30 c 47,23 65,39 79,67 25,51 32,192 14,290 -21,115 -15,133 48,162 101,46 170,142 195,271 14,73 3,145 -35,238 -39,92 -40,96 -18,126 131,176 133,403 7,653 -107,212 -188,290 -346,331 -73,19 -69,16 -196,138 l -110,106 -11,109 c -16,150 -37,258 -77,397 -48,168 -50,183 -24,247 12,30 26,89 30,130 5,41 17,99 27,127 18,52 18,53 61,53 23,0 42,4 42,8 0,5 -13,21 -30,37 -21,20 -30,38 -30,62 0,18 -6,52 -14,75 -8,24 -17,68 -20,99 -12,118 -66,214 -158,284 -32,24 -122,75 -200,113 -133,65 -145,73 -173,118 -16,27 -53,78 -82,113 -28,36 -50,67 -48,69 7,7 123,-58 182,-103 35,-25 81,-68 103,-93 53,-62 51,-35 -5,60 -54,93 -124,165 -224,231 l -76,49 55,-8 c 116,-18 237,1 272,43 11,14 10,15 -7,10 -87,-25 -188,-11 -320,43 -77,33 -97,52 -77,72 9,9 16,7 29,-4 39,-33 46,-30 23,10 l -23,41 27,61 c 89,207 101,508 30,802 -70,293 -167,499 -302,641 -101,106 -166,131 -211,83 -25,-27 -28,-40 -41,-251 -12,-206 -45,-303 -171,-510 -27,-44 -65,-116 -84,-160 l -34,-80 -101,-2 c -87,-2 -206,-22 -285,-48 -14,-5 -12,1 10,19 44,38 152,92 223,112 39,11 59,21 53,27 -15,15 -239,10 -304,-7 -70,-19 -139,-53 -200,-100 -26,-20 -47,-33 -47,-31 0,3 9,23 19,44 32,62 104,143 170,190 33,25 59,46 57,48 -7,8 -111,-39 -162,-73 -66,-44 -152,-135 -192,-205 l -30,-53 -7,50 c -10,74 -23,117 -40,139 -15,19 -16,16 -10,-37 3,-31 1,-84 -5,-119 -11,-60 -49,-151 -69,-163 -5,-4 -9,43 -10,112 -1,215 -33,354 -132,560 -102,213 -128,307 -129,474 0,142 -47,177 -161,121 z m 1886,-288 c 124,-174 217,-444 252,-735 14,-114 14,-152 4,-242 -11,-104 -39,-215 -67,-271 l -15,-27 -67,57 c -37,32 -90,73 -119,91 -48,31 -53,38 -65,90 -7,32 -13,115 -12,187 0,110 6,157 37,305 41,197 54,309 40,335 -8,13 -13,4 -22,-46 -7,-35 -35,-131 -61,-214 -59,-181 -77,-254 -86,-362 -3,-46 -9,-83 -11,-83 -3,0 -17,9 -33,20 -31,22 -159,85 -190,93 -18,5 -19,9 -9,34 17,46 68,142 125,238 103,173 143,304 150,500 3,72 7,141 10,154 5,23 6,23 50,-20 25,-24 65,-71 89,-104 z m -570,-895 c 4,-6 -6,-10 -22,-9 -25,0 -26,1 -8,9 11,5 21,9 22,9 1,1 5,-3 8,-9 z m 227,-15 c 83,-17 158,-43 158,-55 0,-4 3,-22 6,-39 9,-42 -1,-41 -128,13 -56,24 -115,47 -130,51 -18,5 -28,14 -28,26 0,24 23,24 122,4 z m 387,-345 c 88,-48 108,-66 95,-86 -19,-32 -33,-26 -99,37 -90,86 -89,98 4,49 z m 729,-1326 c 18,-5 22,-14 22,-43 0,-42 7,-54 37,-69 25,-14 49,-7 81,21 26,24 28,11 6,-41 -35,-85 -95,-112 -167,-76 -92,46 -133,144 -85,201 11,14 67,17 106,7 z m -71,-252 c 24,-18 50,-26 98,-30 47,-3 65,-9 65,-19 0,-17 -32,-79 -58,-112 l -19,-23 -34,30 c -38,34 -94,122 -105,166 -8,32 -4,32 53,-12 z M 1074,5164 c -38,-76 -70,-130 -72,-121 -2,9 7,53 19,99 19,72 28,89 66,126 25,24 47,41 50,38 3,-3 -25,-67 -63,-142 z m 3841,-2477 55,-17 c 50,-16 56,-21 67,-56 6,-21 12,-51 12,-66 1,-24 -3,-28 -25,-28 -28,0 -78,-46 -89,-81 -9,-27 -21,-24 -35,11 -16,39 -70,86 -109,95 -69,15 -143,-40 -197,-146 l -26,-53 -23,48 c -92,191 -305,193 -401,4 -13,-26 -28,-48 -32,-47 -4,0 -20,21 -37,47 -69,108 -171,122 -235,32 l -22,-31 -28,44 c -36,57 -91,85 -135,68 -50,-21 -59,-18 -79,22 -10,21 -16,40 -13,43 3,3 38,-5 78,-18 61,-19 96,-23 194,-23 125,1 164,7 330,57 282,85 332.7415,93.9871 356,98 23.2585,4.0129 134.0186,19.9479 190,20 87.794,-1.6455 137.3731,-7.8014 204,-23 z m -96,-213 c 70,-59 127,-389 86,-496 -19,-50 -179,-92 -261,-69 -26,7 -43,18 -45,29 -2,9 -2,96 1,192 5,161 7,179 31,230 42,89 90,137 141,139 9,1 30,-11 47,-25 z m -390,-11 c 57,-44 94,-130 113,-266 13,-97 6,-244 -13,-275 -18,-29 -31,-33 -127,-39 -109,-8 -228,13 -259,43 -21,21 -23,33 -23,118 0,216 63,380 164,427 49,23 107,20 145,-8 z m -704,-28 c 49,-51 58,-91 50,-201 -6,-86 -9,-94 -27,-94 -34,0 -89,41 -104,76 -22,52 -18,182 6,222 11,17 25,32 31,32 6,0 26,-16 44,-35 z m 1312,23 c 17,-21 32,-78 43,-159 20,-145 -15,-249 -84,-249 -22,0 -23,5 -35,126 -9,108 -9,134 5,187 23,92 48,124 71,95 z m -1039,-43 c 18,-15 41,-52 57,-93 26,-67 26,-70 16,-181 -13,-141 -22,-155 -97,-149 -105,9 -148,67 -147,198 2,97 28,182 70,224 32,33 63,33 101,1 z m -278,-368 c 0,-5 -8,-16 -17,-23 -16,-11 -13,-12 19,-7 31,5 38,2 53,-21 16,-24 16,-35 4,-127 -14,-114 -33,-149 -78,-149 -28,0 -59,26 -80,67 -16,32 -14,187 4,228 8,20 24,39 37,44 26,9 58,3 58,-12 z m 340,-132 c 33,-11 50,-60 50,-147 0,-70 -4,-93 -25,-135 -39,-77 -84,-123 -127,-130 -80,-12 -131,92 -131,272 0,108 11,151 44,163 18,7 143,-9 189,-23 z m 850,-102 c -25,-113 -94,-253 -124,-253 -40,0 -56,49 -35,108 6,18 16,64 23,104 l 12,72 65,26 c 75,30 78,26 59,-57 z m -202,31 c 27,-8 28,-32 6,-118 -19,-74 -87,-222 -116,-253 -44,-47 -99,-17 -116,64 -8,35 -5,69 13,159 12,63 28,121 35,128 16,21 129,33 178,20 z m -370,-20 c 85,-5 115,-11 119,-21 11,-28 -27,-178 -62,-250 -37,-75 -83,-123 -116,-123 -32,0 -74,26 -87,54 -21,47 -35,158 -30,246 6,100 12,114 42,106 11,-3 72,-8 134,-12 z m -684,-148 c 38,-17 46,-16 109,9 13,6 17,2 17,-17 0,-46 31,-128 61,-163 62,-71 143,-70 219,1 26,24 49,44 52,44 3,0 11,-20 17,-44 23,-91 100,-141 180,-118 24,8 55,30 82,59 39,43 44,45 53,28 24,-43 68,-75 103,-75 52,0 88,24 123,82 41,67 37,63 56,47 8,-7 34,-15 55,-18 l 40,-6 -31,-47 c -48,-72 -75,-84 -232,-102 -76,-9 -188,-27 -249,-41 -128,-29 -250,-33 -325,-10 -129,38 -282,181 -359,334 -26,51 -30,65 -17,59 4,-2 24,-12 46,-22 z"
         id="path5604"
         style="fill:#000000"
         sodipodi:nodetypes="cccccccccscsccscccsccccccccccccscscsccccccccccsccccccccccccccsccscccccscccccccsccccccccccscccccscccccscsccccscccscsccsccsccccsccscccccccsccssccccccccsccscccssccscccccsccccscscccccccscccccccccscccccccccccccccccccccccccccscsccccccccccccccccccccccccccccccccccccccccsscsccccccscccccccccssccccccccccccccsccscccscccccccccccccccccccccccccsccccccccccccccscccsccccccscccsccccscccsccsccscccccsccccccccccccccsccczcccccccccccccccsccccsccscccsccccccccccsccccscccscsccscccscccscccccccccccsccccccsccsccccsccccccccccc" />
      <path
         d="m 1663,7944 c -135,-211 -203,-605 -148,-859 35,-165 125,-343 219,-435 39,-37 46,-50 46,-82 0,-46 9,-48 35,-5 119,187 184,443 165,642 -12,131 -50,237 -157,444 -72,141 -99,204 -112,264 l -17,80 z"
         id="path5606"
         style="fill:#000000" />
      <path
         d="m 2057,6678 c -39,-45 -202,-282 -213,-311 -12,-33 14,-16 86,57 83,84 129,149 154,217 28,74 18,88 -27,37 z"
         id="path5608"
         style="fill:#000000" />
      <path
         d="m 2306,6151 c -8,-13 -96,-38 -195,-55 -194,-35 -284,-83 -351,-187 -41,-63 -66,-126 -56,-137 4,-3 14,5 23,19 32,47 119,121 178,149 41,20 93,35 164,45 110,16 180,41 219,78 25,23 52,68 52,87 0,12 -27,13 -34,1 z"
         id="path5610"
         style="fill:#000000" />
      <path
         d="m 4060,5902 c 0,-22 31,-143 55,-214 14,-40 25,-74 25,-75 0,-2 5,-3 10,-3 6,0 10,31 10,73 0,62 -5,83 -30,134 -29,58 -70,108 -70,85 z"
         id="path5612"
         style="fill:#000000" />
      <path
         d="m 2575,5853 c 4,-16 10,-82 14,-148 6,-112 7,-118 21,-95 24,41 20,175 -8,228 -26,48 -38,55 -27,15 z"
         id="path5614"
         style="fill:#000000" />
      <path
         d="m 1965,5770 c -112,-36 -209,-135 -221,-226 l -5,-39 28,35 c 102,128 187,184 326,216 42,10 74,21 71,26 -10,15 -139,7 -199,-12 z"
         id="path5616"
         style="fill:#000000" />
      <path
         d="m 2160,5716 c 0,-4 20,-26 45,-49 25,-24 45,-48 45,-54 0,-6 -43,-12 -102,-16 -109,-6 -205,-30 -293,-75 -65,-33 -165,-100 -165,-112 0,-5 19,-10 42,-12 36,-3 44,-8 61,-38 47,-86 124,-130 229,-130 85,0 148,23 227,83 39,29 76,48 103,52 75,13 87,41 41,96 -16,18 -46,69 -69,113 -30,59 -52,88 -80,108 -39,26 -84,45 -84,34 z m 80,-188 c 39,-42 23,-121 -35,-170 -57,-49 -198,-73 -262,-46 -38,16 -103,78 -103,99 0,9 11,24 25,33 25,16 26,16 56,-19 42,-47 96,-49 140,-6 35,36 39,66 7,58 -22,-6 -58,8 -58,23 0,15 94,38 197,49 7,0 21,-9 33,-21 z m 95,-97 c 3,-5 1,-12 -5,-16 -5,-3 -10,1 -10,9 0,18 6,21 15,7 z"
         id="path5618"
         style="fill:#000000" />
      <path
         d="m 2880,5387 c 0,-22 603,-913 608,-898 6,19 -153,331 -233,456 -79,124 -149,215 -245,321 -56,62 -130,131 -130,121 z"
         id="path5620"
         style="fill:#000000" />
      <path
         d="m 2255,5216 c -101,-104 -164,-138 -249,-138 -65,0 -128,23 -173,65 -35,32 -37,14 -3,-28 54,-68 95,-89 180,-93 68,-3 80,-1 133,27 54,28 72,30 45,3 -6,-6 -9,-15 -5,-19 12,-11 91,81 119,139 28,58 50,128 40,127 -4,0 -43,-37 -87,-83 z"
         id="path5622"
         style="fill:#000000" />
      <path
         d="m 2440,5006 c 0,-48 89,-270 167,-416 96,-180 132,-220 199,-220 94,0 172,-65 289,-243 39,-59 73,-107 77,-107 14,0 -25,108 -78,216 -83,171 -143,227 -287,269 -49,14 -64,25 -97,66 -43,55 -145,221 -210,344 -43,80 -60,106 -60,91 z"
         id="path5624"
         style="fill:#000000" />
      <path
         d="m 3552,4049 c -121,-24 -244,-91 -324,-177 -104,-113 -140,-216 -142,-402 -1,-138 -11,-162 -118,-282 -90,-103 -138,-210 -138,-311 0,-58 28,-183 56,-245 30,-67 41,-62 23,10 -20,79 -17,232 5,298 30,87 53,128 115,194 31,34 66,76 76,94 11,17 22,32 25,32 3,0 20,-23 38,-50 80,-117 249,-200 410,-200 70,0 202,27 202,41 0,5 -33,9 -73,9 -89,0 -206,28 -292,71 -75,37 -165,122 -194,184 -79,169 -35,395 105,539 67,68 181,146 253,172 81,29 66,42 -27,23 z"
         id="path5626"
         style="fill:#000000" />
      <path
         d="m 4963,3918 c -24,-11 -39,-42 -34,-68 2,-8 16,-29 32,-48 16,-18 29,-41 29,-51 0,-10 -13,-56 -29,-102 -36,-105 -45,-162 -33,-216 6,-24 6,-43 2,-43 -15,0 -83,84 -104,129 -17,37 -21,65 -21,148 0,57 -3,103 -6,103 -19,0 -44,-82 -47,-156 -3,-67 0,-90 17,-129 12,-26 21,-51 21,-56 0,-4 -26,2 -57,13 -38,14 -91,23 -154,26 -109,5 -178,-10 -268,-59 -68,-36 -75,-36 -56,1 28.0991,65.159 26.3369,112.3228 25,173 -1.3369,60.6772 -82,196 -152,233 -42,22 -42,17 -4,-29 136,-166 121,-354 -41,-511 -37,-36 -65,-68 -61,-71 12,-12 80,16 188,76 123,69 191,94 291,110 122,19 266,-9 399,-76 57,-29 79,-33 60,-10 -18,22 0,19 62,-10 92,-43 151,-26 191,55 33,68 37,215 7,312 -39,128 -79,192 -149,239 -47,31 -72,35 -108,17 z"
         id="path5628"
         style="fill:#000000"
         sodipodi:nodetypes="cccsccscssccscccczccccccccccccc" />
      <path
         d="m 3710,3892 c -156,-14 -328,-139 -375,-271 -50,-142 29,-297 188,-371 131,-62 236,-60 353,5 66,37 71,37 53,4 -22,-42 -1,-41 46,2 81,74 113,173 85,268 -23,81 -86,133 -226,185 -50,19 -75,34 -85,52 -13,24 -12,28 14,50 23,20 39,24 88,24 32,0 59,4 59,9 0,23 -125,50 -200,43 z"
         id="path5630"
         style="fill:#000000" />
    </g>
  </g>
</svg>
