<?xml version="1.0" encoding="UTF-8" standalone="no"?>
<!-- Created with Inkscape (http://www.inkscape.org/) -->

<svg
   width="15.000007mm"
   height="44.43145mm"
   viewBox="0 0 15.000007 44.43145"
   version="1.1"
   id="svg6454"
   sodipodi:docname="mani-logo.svg"
   inkscape:version="1.2.2 (b0a8486541, 2022-12-01)"
   xmlns:inkscape="http://www.inkscape.org/namespaces/inkscape"
   xmlns:sodipodi="http://sodipodi.sourceforge.net/DTD/sodipodi-0.dtd"
   xmlns="http://www.w3.org/2000/svg"
   xmlns:svg="http://www.w3.org/2000/svg">
  <sodipodi:namedview
     id="namedview6456"
     pagecolor="#ffffff"
     bordercolor="#666666"
     borderopacity="1.0"
     inkscape:showpageshadow="2"
     inkscape:pageopacity="0.0"
     inkscape:pagecheckerboard="0"
     inkscape:deskcolor="#d1d1d1"
     inkscape:document-units="mm"
     showgrid="false"
     inkscape:zoom="1.515957"
     inkscape:cx="-85.094762"
     inkscape:cy="92.02108"
     inkscape:window-width="2560"
     inkscape:window-height="995"
     inkscape:window-x="0"
     inkscape:window-y="0"
     inkscape:window-maximized="1"
     inkscape:current-layer="layer1" />
  <defs
     id="defs6451" />
  <g
     inkscape:label="Layer 1"
     inkscape:groupmode="layer"
     id="layer1"
     transform="translate(-23.227812,-54.038897)">
    <g
       id="g5985"
       style="fill:#000000"
       transform="matrix(0.00616932,0,0,-0.00616932,-34.286844,87.675996)">
      <path
         id="path5876"
         style="color:#000000;font-size:2993.16px;-inkscape-font-specification:P052;stroke:none;stroke-width:74.829;-inkscape-stroke:none"
         d="m 9374.5593,5452.3187 c 5.8836,-126.1812 9.2624,-192.5846 9.2624,-240.6687 0,-51.1155 -3.3402,-111.6722 -9.4168,-239.2794 l 37.6672,-3.705 7.8731,92.6243 c 1.9842,34.2489 10.1004,62.7237 37.3584,84.5968 27.2583,21.8731 69.3006,29.7942 112.0754,29.7942 19.8115,0 35.171,-0.2741 57.5814,-3.0875 22.4105,-2.8135 52.0233,-7.8044 111.4579,-17.753 L 11323.374,4888.7 l 0.463,-60.3602 -2001.1473,-349.6567 v -19.7598 c 268.8057,-104.1593 351.4627,-136.8533 428.0785,-168.1131 h 0.3088 l 1722.04,-723.8588 -31.029,-57.2726 -1745.0418,203.7734 c -3.1464,0.184 -5.2662,0.4641 -7.7187,0.7719 -3.6577,0.4593 -7.5826,0.9284 -12.0412,1.6981 -7.1066,1.2267 -15.5661,3.0355 -24.3911,5.2487 l -29.0222,2.3156 -1.8525,0.1544 c -66.4259,8.9182 -111.6225,16.1471 -146.6551,38.439 -35.0327,22.292 -45.6184,52.855 -54.9571,91.5437 l -0.3088,1.5437 -8.6449,98.1818 -37.2041,3.705 c 6.1711,-182.5968 9.5712,-282.0918 9.5712,-349.5023 0,-66.4357 -3.4609,-156.155 -9.8799,-351.2005 l 37.8216,-3.7049 8.1818,102.3498 c 1.9698,35.3617 9.8609,64.4117 36.4322,87.2212 26.5712,22.8096 69.4763,32.2641 113.0016,32.2641 32.569,0 68.6539,-3.0458 145.2658,-13.1217 l 1.235,-0.1544 28.4047,-4.7856 1680.8215,-198.8335 h 0.155 c 100.877,-12.6642 166.72,-23.9203 214.888,-50.9433 48.168,-27.023 64.811,-67.5371 70.549,-116.3979 v -0.1543 l 8.027,-72.5557 26.553,-2.7788 c -5.816,132.819 -9.263,196.4392 -9.263,242.0582 0,59.6511 3.411,150.883 9.88,268.1473 -502.465,192.1035 -858.09,341.6092 -1804.4751,757.6666 l -88.3018,38.7478 1892.6229,327.4269 c -6.235,139.5075 -9.726,202.021 -9.726,246.9981 0,58.017 3.297,142.0984 9.417,252.0924 l -27.17,2.9331 -7.564,-77.65 c -3.801,-48.5599 -14.115,-85.9886 -40.446,-115.1629 -26.331,-29.1744 -74.087,-46.0034 -123.345,-46.0034 -69.822,0 -148.997,7.921 -231.56,23.4648 l -1660.5993,310.9089 h -0.1543 c -67.8213,13.008 -120.8588,27.9991 -161.0119,47.8559 -40.1531,19.8569 -68.2041,46.9823 -73.482,77.9587 v 0.7719 l -8.0274,77.8044 z m 2221.2847,-454.9396 c -2.872,-2.2355 -4.401,-6.6204 -7.564,-8.4905 1.387,1.3403 4.087,0.378 5.557,2.0068 0.936,1.0373 1.087,5.2782 2.007,6.4837 z M 9532.3293,3816.2651 c 1.5001,-1.3845 2.3763,-7.2942 4.0137,-8.3361 1.5131,-0.9628 11.9519,-2.2493 14.2024,-3.2419 -5.2683,3.1145 -14.1986,7.7074 -18.2161,11.578 z m 1979.5357,-642.3494 c 34.465,-11.9775 76.65,-28.159 89.073,-49.8627 -5.688,10.0963 -6.413,27.9959 -17.598,34.271 -9.804,5.5002 -50.787,10.3713 -71.475,15.5917 z" />
      <path
         id="path5882"
         style="color:#000000;font-size:2993.16px;-inkscape-font-specification:P052;stroke:none;stroke-width:74.829;-inkscape-stroke:none"
         d="m 9374.4049,3021.8575 9.4168,-262.1267 v -76.7238 l -0.3087,-1.6981 c -2.587,-16.0763 -6.2186,-79.2734 -9.5712,-178.6105 l 38.5934,-3.8593 7.41,76.1063 c 3.7731,39.0439 10.4089,68.4618 26.5523,92.4699 16.1503,24.0184 52.591,43.379 90.463,43.379 70.0643,0 134.4744,-15.2291 227.2383,-51.0977 l 0.1543,-0.1544 569.7939,-222.4526 11.423,-294.0821 v -27.7873 c 0,-22.4766 -3.665,-73.3714 -7.255,-155.1457 l -4.631,-118.5591 -753.0357,-65.7632 h -1.5437 c -44.5457,-1.7087 -89.0992,11.8809 -115.9348,36.5866 -26.8355,24.7057 -39.2669,57.1682 -43.2246,96.7923 l -7.7187,75.4888 h -38.1303 c 6.3,-189.1432 9.7255,-279.4106 9.7255,-354.4422 0,-67.9487 -3.4575,-145.7207 -9.7255,-332.0581 h 38.439 l 7.5643,63.602 v 0.3088 c 6.0324,44.4291 26.7107,82.6856 67.6158,110.5316 40.905,27.8461 97.786,43.4855 167.9587,51.5609 h 0.4631 l 1881.5079,189.1079 0.772,0.1544 c 0,0 32.732,2.4723 100.652,7.4099 22.955,2.9385 66.383,6.1086 115.008,9.5712 v 192.9672 l -2186.7048,894.1331 -0.6175,0.1544 c -85.2793,37.4712 -142.1776,83.839 -146.8095,141.4064 l -7.5643,59.1252 z m 1025.1961,-606.3803 1025.969,-412.6412 111.766,-45.0771 -1137.735,-112.2298 z m -820.4964,-979.0387 c -7.0698,-3.25 -22.6761,-4.3378 -28.0961,-8.0274 -5.7106,-3.8875 -5.642,-13.2004 -10.1886,-17.9074 9.73,9.9063 24.1591,18.4634 38.2847,25.9348 z" />
      <path
         id="path5888"
         style="color:#000000;font-size:2993.16px;-inkscape-font-specification:P052;stroke:none;stroke-width:74.829;-inkscape-stroke:none"
         d="m 9374.5593,1146.9877 c 5.9603,-137.2889 9.2624,-204.86616 9.2624,-255.48865 0,-51.32477 -3.4442,-118.13424 -9.5712,-251.78368 l 37.8216,-3.70497 7.8731,92.62428 c 2.152,35.65998 19.9611,67.86059 55.4202,89.22806 35.4591,21.36756 83.4839,30.1029 137.2383,30.1029 53.7542,0 126.0383,-7.88871 230.9432,-20.37735 h 0.3087 L 11390.681,630.76169 9373.0155,-173.52584 v -166.10622 c 124.5641,-10.90813 225.7633,-20.77929 334.8368,-36.74096 h 0.4631 l 1541.4226,-213.80772 c 149.71,-21.1724 240.943,-34.93584 300.257,-46.31214 59.314,-11.37632 91.478,-20.81308 113.619,-38.28471 l 1.081,-0.92624 1.08,-0.92624 c 26.296,-24.20832 37.358,-51.42296 44.769,-100.03423 l 0.154,-0.30875 8.027,-68.69634 26.398,-3.5506 c -5.788,130.34472 -9.108,201.6813 -9.108,255.95177 0,56.09215 3.389,127.35581 9.572,266.91231 l -27.633,2.9331 -7.256,-70.39445 c -3.913,-41.88382 -16.123,-76.28053 -44.305,-102.65858 -28.183,-26.37808 -74.494,-40.90906 -123.036,-40.90906 -85.459,0 -184.193,4.97871 -261.046,15.59175 L 9722.8266,-322.65094 11746.05,491.20777 c -6.457,140.60092 -10.035,200.29789 -10.035,246.07185 0,55.33868 3.234,136.49976 9.263,242.98432 l -27.324,1.6982 -7.256,-65.76328 v -0.15438 c -8.078,-61.35812 -43.802,-117.71446 -94.94,-160.08563 -51.138,-42.37116 -119.518,-72.09257 -194.974,-72.09257 h -4.322 L 9657.8352,925.61566 c -76.2646,10.28098 -130.9588,21.60968 -172.2812,41.98968 -41.3547,20.3961 -63.3891,52.88406 -65.6088,86.60366 l -8.3362,91.3893 z m 161.6293,-126.5866 c 1.1824,-0.6198 0.3984,-1.6745 1.6982,-2.3156 0.9275,-0.4574 4.8554,-0.9303 5.8662,-1.3893 -1.7951,1.3173 -5.9533,2.3299 -7.5644,3.7049 z M 11574.386,842.71693 c -25.774,-29.72423 -47.047,-53.25806 -83.516,-69.46822 19.058,8.22706 38.499,8.26253 55.729,22.53858 14.515,12.02671 16.667,31.75026 27.787,46.92964 z M 9538.0411,771.70498 c -0.6504,-0.36013 -2.784,-0.24857 -3.3962,-0.6175 -0.6609,-0.39828 -0.4416,-1.74436 -1.0806,-2.16123 1.4134,0.9746 2.9795,1.85965 4.4768,2.77873 z M 11594.3,-458.65426 c -0.482,-0.32789 -0.745,-0.91541 -1.235,-1.23499 0.227,0.20778 0.699,0.0959 0.926,0.30875 0.161,0.15068 0.149,0.7717 0.309,0.92624 z" />
      <path
         id="path5894"
         style="color:#000000;font-size:2993.16px;-inkscape-font-specification:P052;stroke:none;stroke-width:74.829;-inkscape-stroke:none"
         d="m 9374.0962,-792.41043 c 6.2605,-203.02137 9.7255,-301.35757 9.7255,-355.52287 0,-57.2817 -3.4315,-180.0435 -9.8799,-377.7527 l 37.6672,-2.9332 8.3362,113.156 c 1.9579,36.499 9.778,66.6645 37.8216,90 28.0437,23.3354 72.4224,31.9554 118.8678,31.9554 42.2518,0 87.5301,-2.5387 130.1371,-7.8731 h 0.3088 l 1797.5285,-216.4321 h 0.309 c 68.583,-8.9591 116.283,-16.9896 150.823,-42.2984 34.495,-25.2762 40.421,-58.2443 44.151,-100.6517 v -0.1544 l 8.336,-85.8318 37.513,-2.9331 c -9.015,282.3861 -9.726,306.6153 -9.726,360.4628 0,57.1556 3.462,148.944 9.88,350.4286 l -37.976,2.9331 -8.027,-96.1749 v -0.3088 c -2.072,-35.4265 -11.416,-65.5443 -37.822,-88.9193 -26.577,-23.5271 -70.137,-34.8885 -115.163,-34.8885 -60.035,0 -136.682,7.8783 -266.758,22.8473 h -0.154 l -1473.8066,179.0737 h -0.1543 c -153.6116,19.9651 -240.2547,31.8037 -300.2571,54.64832 -30.0012,11.42237 -53.7274,27.64776 -66.9982,46.92964 -13.2668,19.27606 -16.8991,39.4152 -18.8336,61.44078 l -8.4906,95.86613 z m 2188.7118,-803.97887 c 11.454,-5.7364 26.837,-15.0947 33.036,-23.7735 -2.239,3.6625 -2.857,15.4652 -5.558,17.4442 -2.58,1.8908 -21.888,4.2806 -27.478,6.3293 z" />
    </g>
  </g>
</svg>
